<svg version="1.1" xmlns="http://www.w3.org/2000/svg" viewBox="0 0 1024 1024">
    <animateTransform attributeName="transform" type="rotate" values="0;45" keyTimes="0;1" dur="0.5076142131979695s" repeatCount="indefinite"></animateTransform>
    <path d="M902.163 439.237h105.837v145.526h-105.837c-4.328 55.563-27.041 107.347-64.545 154.048l1.72-2.377 74.838 74.838-102.902 102.902-74.838-74.838c-43.113 29.916-94.126 51.861-149.185 62.427l-2.487 0.399v105.837h-145.526v-105.837c-57.547-10.963-108.56-32.907-152.987-63.687l1.316 0.862-74.838 74.838-102.902-102.902 74.838-74.838c-29.916-43.113-51.861-94.126-62.427-149.185l-0.399-2.487h-105.837v-145.526h105.837c10.963-57.547 32.907-108.56 63.687-152.987l-0.862 1.316-74.838-74.838 102.902-102.902 74.838 74.838c43.113-29.916 94.126-51.861 149.185-62.427l2.487-0.399v-105.837h145.526v105.837c57.547 10.963 108.56 32.907 152.987 63.687l-1.316-0.862 74.838-74.838 102.902 102.902-74.838 74.838c29.916 43.113 51.861 94.126 62.427 149.185l0.399 2.487zM512.001 247.407c-146.13 0-264.592 118.461-264.592 264.592s118.461 264.592 264.592 264.592v0c146.13 0 264.592-118.461 264.592-264.592s-118.461-264.592-264.592-264.592v0z"></path>
</svg>
